<svg xmlns="http://www.w3.org/2000/svg" xmlns:xlink="http://www.w3.org/1999/xlink" width="120" zoomAndPan="magnify" viewBox="0 0 962.88 2083.499965" height="130" preserveAspectRatio="xMidYMid meet" version="1.0"><defs><g/><clipPath id="eb88a98e25"><path d="M 303.265625 824 L 762.9375 824 L 762.9375 1280.726562 L 303.265625 1280.726562 Z M 303.265625 824 " clip-rule="nonzero"/></clipPath></defs><g clip-path="url(#eb88a98e25)"><path fill="#8e24aa" d="M 701.863281 1272.332031 C 704.644531 1261.621094 726.890625 1258.332031 727.132812 1258.304688 L 731.429688 1257.726562 L 729.671875 1253.765625 C 724.050781 1241.121094 671.601562 1192.925781 651.070312 1177.523438 C 632.472656 1163.578125 599.535156 1122.488281 593.738281 1115.1875 C 586.640625 1103.566406 580.945312 1093.707031 575.816406 1084.1875 C 574.964844 1082.609375 573 1082.015625 571.421875 1082.867188 C 569.847656 1083.71875 569.253906 1085.6875 570.105469 1087.261719 C 574.535156 1095.492188 579.390625 1103.964844 585.171875 1113.566406 C 572.796875 1115.859375 546.027344 1122.601562 522.007812 1128.652344 C 505.761719 1132.746094 491.726562 1136.28125 485.003906 1137.722656 C 469.726562 1140.992188 424 1144.328125 410.691406 1145.25 L 414.425781 1111.835938 C 414.621094 1110.058594 413.339844 1108.457031 411.5625 1108.253906 C 409.777344 1108.054688 408.175781 1109.339844 407.972656 1111.117188 L 403.816406 1148.355469 C 403.78125 1148.652344 403.800781 1148.933594 403.847656 1149.214844 C 403.007812 1153.769531 399.226562 1172.765625 392.679688 1183.679688 C 387.753906 1191.898438 363.167969 1209.847656 346.898438 1221.730469 C 337.914062 1228.289062 331.421875 1233.035156 329.09375 1235.359375 C 325.035156 1239.417969 325.421875 1246.230469 325.785156 1252.820312 C 326.039062 1257.324219 326.351562 1262.929688 324.390625 1263.207031 C 321.351562 1263.664062 316.3125 1251.644531 313.953125 1238.371094 C 316.210938 1225.710938 348.8125 1184.21875 361.34375 1169.117188 L 362 1168.324219 L 362.082031 1167.296875 C 362.1875 1165.902344 364.707031 1132.976562 364.707031 1116.046875 C 364.707031 1100.128906 372.082031 1086.355469 372.15625 1086.222656 L 375.34375 1080.375 L 368.773438 1081.46875 C 359.085938 1083.082031 352.300781 1079.15625 349.058594 1076.625 C 351.484375 1073.359375 352.890625 1069.144531 354.246094 1065.027344 C 355.542969 1061.105469 356.882812 1057.046875 358.980469 1054.539062 C 360.085938 1053.21875 361.285156 1051.96875 362.554688 1050.648438 C 364.742188 1048.375 367.003906 1046.023438 368.828125 1043.199219 C 372.410156 1037.644531 373.613281 1030.515625 372.121094 1023.632812 C 370.714844 1017.125 367.109375 1011.722656 361.980469 1008.429688 C 358.164062 1005.980469 353.921875 1004.800781 349.828125 1003.660156 C 347.097656 1002.90625 344.480469 1002.167969 342.109375 1001.105469 C 351.066406 996.046875 369.796875 990.742188 377.320312 993.5625 C 382.054688 995.335938 388.199219 1002.761719 393.625 1009.316406 C 396.957031 1013.34375 400.023438 1017.039062 402.90625 1019.726562 C 407.503906 1026.679688 408.511719 1030.445312 407.203125 1035.652344 C 406.765625 1037.390625 407.820312 1039.152344 409.558594 1039.585938 C 409.824219 1039.65625 410.085938 1039.6875 410.351562 1039.6875 C 411.804688 1039.6875 413.128906 1038.703125 413.492188 1037.234375 C 414.699219 1032.445312 414.371094 1028.511719 412.871094 1024.542969 C 435.246094 1028.554688 535.222656 1040.839844 547.136719 1040.839844 C 557.320312 1040.839844 570.582031 1038.140625 590.660156 1034.058594 C 594.441406 1033.289062 598.445312 1032.476562 602.6875 1031.625 C 627.003906 1026.757812 634.519531 1026.882812 634.980469 1026.886719 C 659.742188 1028.84375 666.667969 1063.734375 668.109375 1092.675781 C 669.429688 1118.921875 682.09375 1160.976562 682.632812 1162.753906 L 682.828125 1163.410156 L 683.273438 1163.925781 C 683.507812 1164.199219 706.949219 1191.542969 717.304688 1203.199219 C 725.710938 1212.648438 746.390625 1257.742188 752.96875 1272.332031 Z M 596.222656 1184.949219 C 595.292969 1192.363281 595.769531 1208.929688 596.230469 1224.949219 C 596.585938 1237.265625 597.027344 1252.582031 596.316406 1255.066406 C 595.273438 1258.730469 588.050781 1267.527344 583.160156 1272.898438 L 542.949219 1273.953125 C 548.324219 1264.097656 566.335938 1262.695312 566.539062 1262.683594 L 568.710938 1262.53125 L 569.390625 1260.460938 C 573.019531 1249.46875 567.945312 1224.042969 563.867188 1203.613281 C 561.859375 1193.574219 559.96875 1184.085938 559.96875 1180.117188 C 559.96875 1169.800781 568.605469 1132.292969 570.703125 1123.332031 C 578.628906 1121.480469 585.117188 1120.082031 588.878906 1119.503906 C 592.273438 1123.789062 602.476562 1136.523438 614.203125 1149.855469 C 609.71875 1155.84375 597.742188 1172.789062 596.222656 1184.949219 Z M 473.300781 1207.695312 C 472.976562 1210.925781 466.792969 1225.828125 457.453125 1242.746094 C 445.761719 1263.921875 437.972656 1272.246094 434.855469 1272.941406 C 425.929688 1274.925781 403.613281 1273.832031 393.660156 1273.207031 C 399.433594 1266.953125 415.84375 1261.960938 426.539062 1260.019531 L 428.722656 1259.625 L 443.378906 1183.652344 L 418.273438 1151.21875 C 432.25 1150.203125 456.65625 1148.277344 473.507812 1146.105469 C 474.136719 1160.136719 474.070312 1199.984375 473.300781 1207.695312 Z M 325.636719 1073.675781 C 323.074219 1073.035156 316.144531 1068.382812 312.597656 1062.148438 C 310.511719 1058.480469 309.957031 1054.933594 310.960938 1051.601562 C 314.601562 1039.46875 330.902344 1023.054688 331.066406 1022.894531 L 331.867188 1022.085938 L 332 1020.960938 C 332.007812 1020.859375 333.097656 1011.609375 336.867188 1005.695312 C 340.441406 1007.769531 344.324219 1008.863281 348.089844 1009.910156 C 351.890625 1010.96875 355.484375 1011.964844 358.480469 1013.886719 C 362.144531 1016.242188 364.738281 1020.191406 365.78125 1025.007812 C 366.914062 1030.214844 366.035156 1035.5625 363.375 1039.683594 C 361.894531 1041.980469 359.945312 1044.007812 357.882812 1046.15625 C 356.589844 1047.496094 355.25 1048.882812 354.003906 1050.375 C 351.109375 1053.839844 349.574219 1058.496094 348.089844 1062.996094 C 346.664062 1067.300781 345.308594 1071.363281 343.050781 1073.691406 C 337.558594 1074.128906 328.832031 1074.476562 325.636719 1073.675781 Z M 760.949219 1274.257812 C 759.800781 1271.675781 732.828125 1210.898438 722.15625 1198.886719 C 712.628906 1188.167969 691.949219 1164.078125 688.648438 1160.226562 C 687.023438 1154.757812 675.777344 1116.089844 674.59375 1092.351562 C 673.132812 1063.121094 666.960938 1042.410156 656.484375 1030.910156 C 662.894531 1028.433594 668.421875 1023.84375 672.347656 1017.640625 C 677.617188 1009.316406 679.332031 999.160156 677.054688 989.769531 C 672.449219 970.773438 656.480469 957.785156 643.894531 950.230469 C 637.003906 946.089844 629.726562 942.585938 622.679688 939.195312 C 615.140625 935.558594 607.335938 931.804688 600.238281 927.351562 C 591.308594 921.746094 575.871094 909.777344 572.769531 892.578125 C 569.984375 877.128906 578.109375 859.347656 593.457031 847.261719 C 608.667969 835.285156 628.34375 830.566406 644.792969 834.945312 C 662.570312 839.671875 676.386719 855.910156 676.933594 872.710938 C 677.21875 881.433594 673.410156 890.636719 666.746094 897.34375 C 660.703125 903.433594 653.222656 906.683594 645.65625 906.480469 C 643.191406 906.4375 641.0625 908.394531 640.996094 910.898438 C 640.929688 913.40625 642.914062 915.496094 645.421875 915.5625 C 655.492188 915.816406 665.359375 911.625 673.195312 903.742188 C 681.582031 895.300781 686.375 883.585938 686.011719 872.417969 C 685.328125 851.429688 668.976562 831.980469 647.128906 826.167969 C 627.679688 820.992188 605.515625 826.207031 587.84375 840.125 C 569.882812 854.257812 560.460938 875.484375 563.832031 894.191406 C 566.59375 909.484375 577.808594 923.996094 595.410156 935.042969 C 602.941406 939.765625 610.972656 943.632812 618.742188 947.378906 C 625.601562 950.679688 632.683594 954.09375 639.222656 958.015625 C 650.320312 964.679688 664.359375 975.960938 668.226562 991.910156 C 669.929688 998.921875 668.632812 1006.527344 664.675781 1012.78125 C 661.113281 1018.414062 655.820312 1022.203125 649.78125 1023.457031 C 649.15625 1023.582031 648.59375 1023.835938 648.101562 1024.175781 C 644.265625 1022.042969 640.039062 1020.769531 635.425781 1020.414062 L 635.382812 1020.414062 C 635.078125 1020.394531 627.679688 1020.007812 601.414062 1025.265625 C 597.164062 1026.117188 593.15625 1026.933594 589.367188 1027.695312 C 570.382812 1031.5625 556.664062 1034.351562 547.136719 1034.351562 C 535.109375 1034.351562 417.949219 1019.882812 410.867188 1017.519531 C 410.003906 1017.230469 408.929688 1016.457031 407.730469 1015.371094 C 407.679688 1015.316406 407.625 1015.265625 407.566406 1015.21875 C 404.890625 1012.757812 401.625 1008.808594 398.621094 1005.179688 C 392.394531 997.652344 385.953125 989.871094 379.597656 987.488281 C 367.511719 982.957031 338.636719 992.941406 332.777344 1000.269531 C 327.972656 1006.269531 326.195312 1015.808594 325.703125 1019.097656 C 322.222656 1022.699219 308.40625 1037.535156 304.746094 1049.738281 C 303.238281 1054.761719 304.003906 1060.164062 306.957031 1065.359375 C 311.433594 1073.21875 319.769531 1078.894531 324.0625 1079.96875 C 328.789062 1081.148438 339.191406 1080.496094 343.238281 1080.183594 C 345.972656 1082.710938 353.191406 1088.253906 364.039062 1088.335938 C 361.605469 1094.234375 358.21875 1104.511719 358.21875 1116.046875 C 358.21875 1131.085938 356.121094 1159.976562 355.691406 1165.769531 C 348.582031 1174.386719 309.425781 1222.421875 307.449219 1238 L 307.386719 1238.480469 L 307.46875 1238.957031 C 308.777344 1246.566406 313.914062 1271.253906 325.308594 1269.628906 C 333.164062 1268.511719 332.664062 1259.609375 332.261719 1252.460938 C 332.003906 1247.777344 331.675781 1241.953125 333.679688 1239.945312 C 335.652344 1237.976562 342.636719 1232.871094 350.726562 1226.96875 C 373.652344 1210.222656 393.058594 1195.65625 398.242188 1187.019531 C 404.851562 1176.003906 408.699219 1158.367188 409.964844 1151.808594 C 410.128906 1151.796875 410.320312 1151.78125 410.496094 1151.769531 L 436.449219 1185.304688 L 423.1875 1254.066406 C 414.730469 1255.816406 387.949219 1262.347656 385.304688 1275.46875 L 384.578125 1279.058594 L 388.234375 1279.339844 C 389.175781 1279.417969 404.078125 1280.558594 417.78125 1280.558594 C 425.023438 1280.558594 431.929688 1280.238281 436.261719 1279.273438 C 450.769531 1276.046875 478.839844 1217.464844 479.757812 1208.335938 C 480.578125 1200.121094 480.644531 1159.25 479.953125 1145.203125 C 482.402344 1144.824219 484.578125 1144.445312 486.359375 1144.0625 C 493.203125 1142.601562 507.28125 1139.050781 523.589844 1134.941406 C 536.628906 1131.65625 551.253906 1127.976562 563.652344 1125.003906 C 560.71875 1137.683594 553.480469 1169.980469 553.480469 1180.117188 C 553.480469 1184.726562 555.253906 1193.625 557.507812 1204.886719 C 560.992188 1222.351562 565.6875 1245.859375 563.722656 1256.464844 C 556.898438 1257.386719 537.71875 1261.332031 535.21875 1276.796875 L 534.589844 1280.660156 L 586.066406 1279.316406 L 586.992188 1278.316406 C 588.386719 1276.820312 600.65625 1263.507812 602.554688 1256.847656 C 603.492188 1253.558594 603.246094 1243.054688 602.71875 1224.769531 C 602.28125 1209.722656 601.789062 1192.671875 602.65625 1185.753906 C 603.894531 1175.839844 613.957031 1161.152344 618.613281 1154.8125 C 628.53125 1165.84375 639.039062 1176.613281 647.179688 1182.714844 C 666.484375 1197.191406 710.28125 1237.621094 721.46875 1252.769531 C 712.410156 1254.8125 693.957031 1260.828125 695.144531 1275.828125 L 695.378906 1278.820312 L 762.964844 1278.820312 L 760.949219 1274.257812 " fill-opacity="1" fill-rule="nonzero"/></g><g fill="#000000" fill-opacity="1"><g transform="translate(22.759664, 932.568803)"><g><path d="M 14.613281 -104.980469 L 14.613281 0 L 53.628906 0 C 73.472656 0 90.769531 -8.582031 90.769531 -28.824219 C 90.769531 -36.871094 85.671875 -50.546875 70.121094 -54.566406 C 84.867188 -61.136719 86.074219 -73.875 86.074219 -78.566406 C 86.074219 -95.726562 71.460938 -104.980469 52.289062 -104.980469 Z M 25.472656 -58.320312 L 25.472656 -94.925781 L 51.351562 -94.925781 C 63.417969 -94.925781 74.945312 -90.097656 74.945312 -77.359375 C 74.945312 -67.035156 67.839844 -58.320312 50.546875 -58.320312 Z M 25.472656 -10.054688 L 25.472656 -48.535156 L 51.886719 -48.535156 C 64.085938 -48.535156 79.503906 -44.511719 79.503906 -29.628906 C 79.503906 -14.613281 65.292969 -10.054688 53.898438 -10.054688 Z M 25.472656 -10.054688 "/></g></g></g><g fill="#000000" fill-opacity="1"><g transform="translate(121.034235, 932.568803)"><g><path d="M 112.753906 -52.824219 C 112.753906 -82.722656 90.230469 -106.050781 60.199219 -106.050781 C 29.765625 -106.050781 7.238281 -82.320312 7.238281 -52.15625 C 7.238281 -22.257812 29.765625 1.074219 59.796875 1.074219 C 90.230469 1.074219 112.753906 -22.660156 112.753906 -52.824219 Z M 101.359375 -52.15625 C 101.359375 -28.691406 84.332031 -9.25 60.199219 -9.25 C 35.796875 -9.25 18.636719 -29.09375 18.636719 -52.824219 C 18.636719 -76.289062 35.664062 -95.726562 59.796875 -95.726562 C 84.199219 -95.726562 101.359375 -75.75 101.359375 -52.15625 Z M 101.359375 -52.15625 "/></g></g></g><g fill="#000000" fill-opacity="1"><g transform="translate(241.02842, 932.568803)"><g><path d="M 112.753906 -52.824219 C 112.753906 -82.722656 90.230469 -106.050781 60.199219 -106.050781 C 29.765625 -106.050781 7.238281 -82.320312 7.238281 -52.15625 C 7.238281 -22.257812 29.765625 1.074219 59.796875 1.074219 C 90.230469 1.074219 112.753906 -22.660156 112.753906 -52.824219 Z M 101.359375 -52.15625 C 101.359375 -28.691406 84.332031 -9.25 60.199219 -9.25 C 35.796875 -9.25 18.636719 -29.09375 18.636719 -52.824219 C 18.636719 -76.289062 35.664062 -95.726562 59.796875 -95.726562 C 84.199219 -95.726562 101.359375 -75.75 101.359375 -52.15625 Z M 101.359375 -52.15625 "/></g></g></g><g fill="#000000" fill-opacity="1"><g transform="translate(361.022606, 932.568803)"><g><path d="M 25.609375 -104.980469 L 14.613281 -104.980469 L 14.613281 0 L 25.609375 0 L 25.609375 -50.546875 L 26.414062 -50.546875 L 75.617188 0 L 91.167969 0 L 37.273438 -54.703125 L 88.757812 -104.980469 L 73.339844 -104.980469 L 26.277344 -58.589844 L 25.609375 -58.589844 Z M 25.609375 -104.980469 "/></g></g></g><g fill="#000000" fill-opacity="1"><g transform="translate(451.78918, 932.568803)"><g><path d="M 100.152344 0 L 100.152344 -104.980469 L 89.292969 -104.980469 L 89.292969 -17.296875 L 27.351562 -104.980469 L 14.613281 -104.980469 L 14.613281 0 L 25.472656 0 L 25.472656 -89.425781 L 88.355469 0 Z M 100.152344 0 "/></g></g></g><g fill="#000000" fill-opacity="1"><g transform="translate(566.545134, 932.568803)"><g/></g></g><g fill="#000000" fill-opacity="1"><g transform="translate(603.951138, 932.568803)"><g/></g></g><g fill="#000000" fill-opacity="1"><g transform="translate(641.357142, 932.568803)"><g/></g></g><g fill="#000000" fill-opacity="1"><g transform="translate(678.757768, 932.568803)"><g><path d="M 37.941406 -94.65625 L 37.941406 0 L 49.070312 0 L 49.070312 -94.65625 L 84.0625 -94.65625 L 84.0625 -104.980469 L 2.816406 -104.980469 L 2.816406 -94.65625 Z M 37.941406 -94.65625 "/></g></g></g><g fill="#000000" fill-opacity="1"><g transform="translate(765.636246, 932.568803)"><g><path d="M 80.308594 -94.789062 L 80.308594 -104.980469 L 14.613281 -104.980469 L 14.613281 0 L 80.847656 0 L 80.847656 -10.191406 L 25.609375 -10.191406 L 25.609375 -48.265625 L 75.617188 -48.265625 L 75.617188 -58.457031 L 25.609375 -58.457031 L 25.609375 -94.789062 Z M 80.308594 -94.789062 "/></g></g></g><g fill="#000000" fill-opacity="1"><g transform="translate(854.65987, 932.568803)"><g><path d="M 42.902344 1.074219 C 63.953125 1.074219 76.691406 -12.871094 76.691406 -28.289062 C 76.691406 -35.261719 73.875 -41.160156 69.449219 -45.988281 C 63.683594 -52.289062 54.300781 -56.445312 43.039062 -59.261719 C 27.21875 -63.28125 20.648438 -68.511719 20.648438 -78.03125 C 20.648438 -89.023438 31.105469 -95.863281 42.367188 -95.863281 C 56.3125 -95.863281 62.878906 -87.816406 66.367188 -79.101562 L 75.75 -84.332031 C 71.058594 -96.800781 60.066406 -106.1875 42.636719 -106.1875 C 25.207031 -106.1875 9.652344 -95.460938 9.652344 -77.496094 C 9.652344 -62.878906 19.441406 -53.628906 41.027344 -48.402344 C 56.578125 -44.644531 65.429688 -38.480469 65.429688 -27.484375 C 65.429688 -16.492188 55.238281 -9.25 42.902344 -9.25 C 28.558594 -9.25 21.050781 -17.296875 16.089844 -29.496094 L 6.570312 -24.535156 C 12.601562 -8.582031 24.535156 1.074219 42.902344 1.074219 Z M 42.902344 1.074219 "/></g></g></g></svg>