<svg xmlns="http://www.w3.org/2000/svg" xmlns:xlink="http://www.w3.org/1999/xlink" width="120" zoomAndPan="magnify" viewBox="0 0 375 374.999991" height="130" preserveAspectRatio="xMidYMid meet" version="1.0"><defs><g/><clipPath id="241146f623"><path d="M 117.210938 84 L 299.460938 84 L 299.460938 265.152344 L 117.210938 265.152344 Z M 117.210938 84 " clip-rule="nonzero"/></clipPath></defs><g clip-path="url(#241146f623)"><path fill="#8e24aa" d="M 275.246094 261.824219 C 276.347656 257.578125 285.167969 256.273438 285.261719 256.261719 L 286.96875 256.03125 L 286.269531 254.460938 C 284.042969 249.449219 263.246094 230.339844 255.105469 224.234375 C 247.730469 218.703125 234.671875 202.414062 232.375 199.519531 C 229.5625 194.910156 227.304688 191.003906 225.269531 187.226562 C 224.933594 186.601562 224.152344 186.367188 223.527344 186.703125 C 222.902344 187.042969 222.667969 187.820312 223.003906 188.445312 C 224.761719 191.710938 226.6875 195.070312 228.980469 198.875 C 224.070312 199.785156 213.457031 202.457031 203.9375 204.855469 C 197.496094 206.480469 191.929688 207.882812 189.265625 208.453125 C 183.207031 209.75 165.078125 211.070312 159.800781 211.4375 L 161.28125 198.191406 C 161.359375 197.484375 160.851562 196.851562 160.148438 196.769531 C 159.4375 196.691406 158.804688 197.199219 158.722656 197.90625 L 157.078125 212.667969 C 157.0625 212.785156 157.070312 212.898438 157.089844 213.007812 C 156.753906 214.816406 155.257812 222.347656 152.660156 226.675781 C 150.707031 229.933594 140.960938 237.050781 134.507812 241.761719 C 130.945312 244.359375 128.371094 246.242188 127.449219 247.164062 C 125.839844 248.773438 125.992188 251.472656 126.136719 254.085938 C 126.238281 255.871094 126.363281 258.09375 125.585938 258.207031 C 124.378906 258.386719 122.382812 253.621094 121.445312 248.359375 C 122.34375 243.339844 135.269531 226.886719 140.234375 220.898438 L 140.496094 220.585938 L 140.53125 220.179688 C 140.570312 219.625 141.570312 206.570312 141.570312 199.859375 C 141.570312 193.546875 144.492188 188.085938 144.523438 188.035156 L 145.789062 185.714844 L 143.183594 186.148438 C 139.34375 186.789062 136.652344 185.234375 135.367188 184.230469 C 136.328125 182.933594 136.882812 181.261719 137.421875 179.632812 C 137.9375 178.078125 138.46875 176.46875 139.300781 175.472656 C 139.738281 174.949219 140.214844 174.453125 140.714844 173.929688 C 141.585938 173.027344 142.480469 172.097656 143.203125 170.976562 C 144.625 168.773438 145.101562 165.949219 144.511719 163.21875 C 143.953125 160.640625 142.523438 158.496094 140.488281 157.191406 C 138.976562 156.222656 137.292969 155.753906 135.671875 155.300781 C 134.585938 155 133.550781 154.710938 132.609375 154.289062 C 136.160156 152.28125 143.585938 150.179688 146.570312 151.296875 C 148.449219 152 150.882812 154.945312 153.035156 157.542969 C 154.355469 159.140625 155.570312 160.605469 156.714844 161.671875 C 158.539062 164.425781 158.9375 165.921875 158.417969 167.984375 C 158.246094 168.675781 158.664062 169.371094 159.351562 169.542969 C 159.457031 169.574219 159.5625 169.585938 159.667969 169.585938 C 160.242188 169.585938 160.765625 169.195312 160.914062 168.613281 C 161.390625 166.714844 161.261719 165.15625 160.664062 163.582031 C 169.535156 165.171875 209.175781 170.042969 213.898438 170.042969 C 217.9375 170.042969 223.195312 168.972656 231.15625 167.351562 C 232.652344 167.046875 234.242188 166.726562 235.921875 166.386719 C 245.5625 164.460938 248.542969 164.507812 248.726562 164.507812 C 258.542969 165.285156 261.289062 179.121094 261.863281 190.59375 C 262.382812 201 267.40625 217.671875 267.617188 218.378906 L 267.699219 218.636719 L 267.875 218.84375 C 267.964844 218.949219 277.261719 229.792969 281.367188 234.414062 C 284.699219 238.160156 292.898438 256.039062 295.507812 261.824219 Z M 233.359375 227.175781 C 232.992188 230.117188 233.179688 236.683594 233.363281 243.035156 C 233.503906 247.917969 233.679688 253.992188 233.398438 254.976562 C 232.984375 256.429688 230.121094 259.917969 228.179688 262.046875 L 212.238281 262.464844 C 214.367188 258.558594 221.511719 258.003906 221.589844 257.996094 L 222.453125 257.9375 L 222.722656 257.117188 C 224.160156 252.757812 222.148438 242.675781 220.53125 234.578125 C 219.734375 230.597656 218.988281 226.835938 218.988281 225.261719 C 218.988281 221.171875 222.410156 206.300781 223.242188 202.746094 C 226.386719 202.015625 228.957031 201.460938 230.449219 201.230469 C 231.792969 202.929688 235.839844 207.976562 240.488281 213.265625 C 238.710938 215.636719 233.960938 222.355469 233.359375 227.175781 Z M 184.625 236.195312 C 184.496094 237.476562 182.042969 243.382812 178.339844 250.089844 C 173.707031 258.488281 170.617188 261.789062 169.382812 262.0625 C 165.84375 262.851562 156.996094 262.417969 153.050781 262.171875 C 155.339844 259.691406 161.84375 257.710938 166.085938 256.941406 L 166.949219 256.785156 L 172.761719 226.664062 L 162.808594 213.804688 C 168.347656 213.402344 178.027344 212.636719 184.707031 211.777344 C 184.957031 217.339844 184.929688 233.140625 184.625 236.195312 Z M 126.082031 183.058594 C 125.0625 182.804688 122.316406 180.960938 120.910156 178.492188 C 120.082031 177.035156 119.863281 175.628906 120.261719 174.308594 C 121.703125 169.5 128.167969 162.992188 128.230469 162.925781 L 128.550781 162.605469 L 128.601562 162.160156 C 128.605469 162.121094 129.039062 158.453125 130.53125 156.109375 C 131.949219 156.929688 133.488281 157.363281 134.980469 157.777344 C 136.488281 158.199219 137.914062 158.59375 139.101562 159.355469 C 140.554688 160.289062 141.582031 161.855469 141.996094 163.765625 C 142.445312 165.828125 142.097656 167.949219 141.042969 169.582031 C 140.453125 170.492188 139.679688 171.296875 138.863281 172.148438 C 138.351562 172.679688 137.820312 173.230469 137.328125 173.824219 C 136.179688 175.195312 135.570312 177.042969 134.980469 178.824219 C 134.417969 180.53125 133.878906 182.144531 132.984375 183.066406 C 130.804688 183.242188 127.347656 183.378906 126.082031 183.058594 Z M 298.667969 262.585938 C 298.214844 261.5625 287.523438 237.464844 283.289062 232.703125 C 279.511719 228.453125 271.3125 218.902344 270.003906 217.375 C 269.359375 215.207031 264.902344 199.875 264.433594 190.464844 C 263.851562 178.875 261.40625 170.664062 257.253906 166.105469 C 259.792969 165.121094 261.984375 163.304688 263.542969 160.84375 C 265.632812 157.542969 266.3125 153.515625 265.410156 149.792969 C 263.582031 142.261719 257.25 137.113281 252.261719 134.117188 C 249.527344 132.476562 246.644531 131.085938 243.851562 129.742188 C 240.859375 128.300781 237.765625 126.8125 234.953125 125.046875 C 231.414062 122.824219 225.292969 118.078125 224.0625 111.257812 C 222.957031 105.136719 226.179688 98.085938 232.265625 93.292969 C 238.292969 88.542969 246.09375 86.671875 252.617188 88.410156 C 259.664062 90.285156 265.144531 96.722656 265.359375 103.382812 C 265.472656 106.839844 263.964844 110.488281 261.320312 113.148438 C 258.925781 115.5625 255.957031 116.851562 252.957031 116.769531 C 251.980469 116.753906 251.136719 117.53125 251.113281 118.523438 C 251.085938 119.519531 251.871094 120.347656 252.867188 120.371094 C 256.859375 120.472656 260.769531 118.8125 263.878906 115.6875 C 267.203125 112.339844 269.105469 107.695312 268.960938 103.265625 C 268.6875 94.945312 262.207031 87.234375 253.542969 84.929688 C 245.832031 82.878906 237.042969 84.945312 230.039062 90.460938 C 222.917969 96.066406 219.179688 104.480469 220.519531 111.898438 C 221.613281 117.960938 226.058594 123.714844 233.039062 128.097656 C 236.023438 129.96875 239.207031 131.5 242.289062 132.988281 C 245.007812 134.292969 247.816406 135.648438 250.410156 137.203125 C 254.808594 139.847656 260.375 144.320312 261.910156 150.644531 C 262.582031 153.421875 262.070312 156.4375 260.5 158.917969 C 259.085938 161.148438 256.988281 162.652344 254.59375 163.148438 C 254.347656 163.199219 254.125 163.300781 253.929688 163.433594 C 252.40625 162.589844 250.730469 162.085938 248.902344 161.945312 L 248.886719 161.945312 C 248.765625 161.933594 245.832031 161.78125 235.417969 163.867188 C 233.734375 164.203125 232.144531 164.527344 230.644531 164.832031 C 223.117188 166.363281 217.675781 167.46875 213.898438 167.46875 C 209.128906 167.46875 162.679688 161.734375 159.871094 160.796875 C 159.53125 160.679688 159.105469 160.375 158.628906 159.945312 C 158.609375 159.921875 158.585938 159.902344 158.5625 159.882812 C 157.503906 158.90625 156.207031 157.34375 155.015625 155.902344 C 152.546875 152.917969 149.992188 149.832031 147.472656 148.886719 C 142.679688 147.09375 131.234375 151.050781 128.910156 153.957031 C 127.007812 156.335938 126.300781 160.117188 126.105469 161.421875 C 124.726562 162.851562 119.25 168.730469 117.796875 173.570312 C 117.199219 175.5625 117.503906 177.703125 118.671875 179.761719 C 120.449219 182.878906 123.753906 185.128906 125.457031 185.554688 C 127.328125 186.023438 131.453125 185.765625 133.058594 185.640625 C 134.140625 186.640625 137.003906 188.839844 141.304688 188.871094 C 140.339844 191.210938 139 195.285156 139 199.859375 C 139 205.820312 138.167969 217.277344 137.996094 219.574219 C 135.175781 222.988281 119.652344 242.035156 118.867188 248.210938 L 118.84375 248.402344 L 118.875 248.589844 C 119.394531 251.605469 121.433594 261.394531 125.949219 260.75 C 129.0625 260.308594 128.863281 256.777344 128.707031 253.945312 C 128.605469 252.085938 128.472656 249.777344 129.269531 248.984375 C 130.050781 248.199219 132.820312 246.175781 136.027344 243.835938 C 145.117188 237.199219 152.808594 231.421875 154.867188 228 C 157.484375 223.628906 159.011719 216.636719 159.515625 214.039062 C 159.578125 214.035156 159.65625 214.027344 159.726562 214.023438 L 170.015625 227.316406 L 164.757812 254.582031 C 161.402344 255.273438 150.785156 257.863281 149.734375 263.066406 L 149.449219 264.488281 L 150.898438 264.601562 C 151.269531 264.632812 157.179688 265.082031 162.613281 265.082031 C 165.484375 265.082031 168.222656 264.957031 169.941406 264.574219 C 175.691406 263.296875 186.820312 240.070312 187.183594 236.449219 C 187.511719 233.191406 187.535156 216.988281 187.261719 211.417969 C 188.234375 211.269531 189.09375 211.117188 189.800781 210.96875 C 192.515625 210.386719 198.097656 208.980469 204.5625 207.351562 C 209.734375 206.046875 215.53125 204.589844 220.449219 203.410156 C 219.285156 208.4375 216.414062 221.242188 216.414062 225.261719 C 216.414062 227.089844 217.117188 230.617188 218.011719 235.082031 C 219.390625 242.007812 221.253906 251.328125 220.476562 255.53125 C 217.769531 255.898438 210.164062 257.460938 209.171875 263.59375 L 208.921875 265.125 L 229.332031 264.589844 L 229.699219 264.195312 C 230.253906 263.601562 235.117188 258.324219 235.871094 255.683594 C 236.242188 254.378906 236.144531 250.214844 235.933594 242.964844 C 235.761719 237 235.566406 230.238281 235.910156 227.496094 C 236.402344 223.566406 240.390625 217.742188 242.238281 215.230469 C 246.167969 219.601562 250.335938 223.871094 253.5625 226.289062 C 261.21875 232.03125 278.582031 248.058594 283.015625 254.066406 C 279.425781 254.875 272.109375 257.261719 272.578125 263.207031 L 272.671875 264.394531 L 299.46875 264.394531 L 298.667969 262.585938 " fill-opacity="1" fill-rule="nonzero"/></g><g fill="#ffffff" fill-opacity="1"><g transform="translate(6.208079, 126.645399)"><g><path d="M 5.785156 -41.542969 L 5.785156 0 L 21.222656 0 C 29.074219 0 35.921875 -3.394531 35.921875 -11.40625 C 35.921875 -14.589844 33.90625 -20.003906 27.75 -21.59375 C 33.585938 -24.195312 34.0625 -29.234375 34.0625 -31.09375 C 34.0625 -37.882812 28.28125 -41.542969 20.691406 -41.542969 Z M 10.082031 -23.082031 L 10.082031 -37.566406 L 20.320312 -37.566406 C 25.097656 -37.566406 29.660156 -35.65625 29.660156 -30.613281 C 29.660156 -26.527344 26.847656 -23.082031 20.003906 -23.082031 Z M 10.082031 -3.980469 L 10.082031 -19.207031 L 20.535156 -19.207031 C 25.363281 -19.207031 31.464844 -17.617188 31.464844 -11.726562 C 31.464844 -5.785156 25.839844 -3.980469 21.328125 -3.980469 Z M 10.082031 -3.980469 "/></g></g></g><g fill="#ffffff" fill-opacity="1"><g transform="translate(45.099995, 126.645399)"><g><path d="M 44.621094 -20.90625 C 44.621094 -32.738281 35.707031 -41.96875 23.824219 -41.96875 C 11.777344 -41.96875 2.863281 -32.578125 2.863281 -20.640625 C 2.863281 -8.808594 11.777344 0.425781 23.664062 0.425781 C 35.707031 0.425781 44.621094 -8.96875 44.621094 -20.90625 Z M 40.113281 -20.640625 C 40.113281 -11.355469 33.375 -3.660156 23.824219 -3.660156 C 14.167969 -3.660156 7.375 -11.515625 7.375 -20.90625 C 7.375 -30.191406 14.113281 -37.882812 23.664062 -37.882812 C 33.320312 -37.882812 40.113281 -29.976562 40.113281 -20.640625 Z M 40.113281 -20.640625 "/></g></g></g><g fill="#ffffff" fill-opacity="1"><g transform="translate(92.587386, 126.645399)"><g><path d="M 44.621094 -20.90625 C 44.621094 -32.738281 35.707031 -41.96875 23.824219 -41.96875 C 11.777344 -41.96875 2.863281 -32.578125 2.863281 -20.640625 C 2.863281 -8.808594 11.777344 0.425781 23.664062 0.425781 C 35.707031 0.425781 44.621094 -8.96875 44.621094 -20.90625 Z M 40.113281 -20.640625 C 40.113281 -11.355469 33.375 -3.660156 23.824219 -3.660156 C 14.167969 -3.660156 7.375 -11.515625 7.375 -20.90625 C 7.375 -30.191406 14.113281 -37.882812 23.664062 -37.882812 C 33.320312 -37.882812 40.113281 -29.976562 40.113281 -20.640625 Z M 40.113281 -20.640625 "/></g></g></g><g fill="#ffffff" fill-opacity="1"><g transform="translate(140.074776, 126.645399)"><g><path d="M 10.132812 -41.542969 L 5.785156 -41.542969 L 5.785156 0 L 10.132812 0 L 10.132812 -20.003906 L 10.453125 -20.003906 L 29.925781 0 L 36.078125 0 L 14.75 -21.648438 L 35.125 -41.542969 L 29.023438 -41.542969 L 10.398438 -23.1875 L 10.132812 -23.1875 Z M 10.132812 -41.542969 "/></g></g></g><g fill="#ffffff" fill-opacity="1"><g transform="translate(175.995411, 126.645399)"><g><path d="M 39.632812 0 L 39.632812 -41.542969 L 35.335938 -41.542969 L 35.335938 -6.84375 L 10.824219 -41.542969 L 5.785156 -41.542969 L 5.785156 0 L 10.082031 0 L 10.082031 -35.390625 L 34.964844 0 Z M 39.632812 0 "/></g></g></g><g fill="#ffffff" fill-opacity="1"><g transform="translate(221.402842, 126.645399)"><g/></g></g><g fill="#ffffff" fill-opacity="1"><g transform="translate(236.20618, 126.645399)"><g/></g></g><g fill="#ffffff" fill-opacity="1"><g transform="translate(251.009517, 126.645399)"><g/></g></g><g fill="#ffffff" fill-opacity="1"><g transform="translate(265.795898, 126.645399)"><g><path d="M 15.015625 -37.460938 L 15.015625 0 L 19.417969 0 L 19.417969 -37.460938 L 33.269531 -37.460938 L 33.269531 -41.542969 L 1.113281 -41.542969 L 1.113281 -37.460938 Z M 15.015625 -37.460938 "/></g></g></g><g fill="#ffffff" fill-opacity="1"><g transform="translate(300.177834, 126.645399)"><g><path d="M 31.78125 -37.511719 L 31.78125 -41.542969 L 5.785156 -41.542969 L 5.785156 0 L 31.996094 0 L 31.996094 -4.03125 L 10.132812 -4.03125 L 10.132812 -19.101562 L 29.925781 -19.101562 L 29.925781 -23.132812 L 10.132812 -23.132812 L 10.132812 -37.511719 Z M 31.78125 -37.511719 "/></g></g></g><g fill="#ffffff" fill-opacity="1"><g transform="translate(335.408702, 126.645399)"><g><path d="M 16.980469 0.425781 C 25.308594 0.425781 30.347656 -5.09375 30.347656 -11.195312 C 30.347656 -13.953125 29.234375 -16.289062 27.484375 -18.199219 C 25.203125 -20.691406 21.488281 -22.335938 17.03125 -23.453125 C 10.769531 -25.042969 8.171875 -27.113281 8.171875 -30.878906 C 8.171875 -35.230469 12.308594 -37.9375 16.765625 -37.9375 C 22.285156 -37.9375 24.882812 -34.753906 26.265625 -31.304688 L 29.976562 -33.375 C 28.121094 -38.308594 23.769531 -42.023438 16.871094 -42.023438 C 9.976562 -42.023438 3.820312 -37.777344 3.820312 -30.667969 C 3.820312 -24.882812 7.695312 -21.222656 16.234375 -19.152344 C 22.390625 -17.667969 25.890625 -15.226562 25.890625 -10.878906 C 25.890625 -6.527344 21.859375 -3.660156 16.980469 -3.660156 C 11.300781 -3.660156 8.332031 -6.84375 6.367188 -11.671875 L 2.601562 -9.710938 C 4.988281 -3.394531 9.710938 0.425781 16.980469 0.425781 Z M 16.980469 0.425781 "/></g></g></g></svg>