<svg xmlns="http://www.w3.org/2000/svg" xmlns:xlink="http://www.w3.org/1999/xlink" width="120" zoomAndPan="magnify" viewBox="0 0 962.88 2083.499965" height="130" preserveAspectRatio="xMidYMid meet" version="1.0"><defs><g/><clipPath id="1f5718a035"><path d="M 380.144531 917 L 642.285156 917 L 642.285156 1178.089844 L 380.144531 1178.089844 Z M 380.144531 917 " clip-rule="nonzero"/></clipPath></defs><g clip-path="url(#1f5718a035)"><path fill="#8e24aa" d="M 607.457031 1173.300781 C 609.042969 1167.195312 621.726562 1165.320312 621.867188 1165.300781 L 624.316406 1164.972656 L 623.3125 1162.714844 C 620.109375 1155.503906 590.199219 1128.019531 578.492188 1119.234375 C 567.882812 1111.28125 549.101562 1087.851562 545.792969 1083.6875 C 541.746094 1077.058594 538.5 1071.4375 535.574219 1066.007812 C 535.089844 1065.109375 533.96875 1064.769531 533.066406 1065.253906 C 532.167969 1065.742188 531.832031 1066.863281 532.316406 1067.761719 C 534.84375 1072.453125 537.613281 1077.285156 540.910156 1082.761719 C 533.851562 1084.070312 518.585938 1087.914062 504.890625 1091.363281 C 495.621094 1093.699219 487.621094 1095.714844 483.785156 1096.539062 C 475.074219 1098.402344 448.996094 1100.304688 441.40625 1100.832031 L 443.535156 1081.777344 C 443.648438 1080.761719 442.917969 1079.847656 441.902344 1079.730469 C 440.886719 1079.621094 439.972656 1080.351562 439.855469 1081.363281 L 437.488281 1102.601562 C 437.464844 1102.769531 437.476562 1102.933594 437.503906 1103.089844 C 437.023438 1105.6875 434.867188 1116.519531 431.132812 1122.746094 C 428.324219 1127.433594 414.304688 1137.667969 405.027344 1144.445312 C 399.902344 1148.1875 396.199219 1150.890625 394.875 1152.21875 C 392.558594 1154.53125 392.777344 1158.417969 392.984375 1162.175781 C 393.128906 1164.746094 393.308594 1167.941406 392.191406 1168.101562 C 390.457031 1168.359375 387.585938 1161.503906 386.238281 1153.933594 C 387.527344 1146.714844 406.121094 1123.054688 413.265625 1114.441406 L 413.640625 1113.988281 L 413.6875 1113.402344 C 413.746094 1112.609375 415.183594 1093.832031 415.183594 1084.175781 C 415.183594 1075.097656 419.386719 1067.242188 419.429688 1067.167969 L 421.25 1063.832031 L 417.5 1064.457031 C 411.976562 1065.375 408.109375 1063.140625 406.257812 1061.695312 C 407.640625 1059.832031 408.441406 1057.429688 409.21875 1055.082031 C 409.957031 1052.84375 410.71875 1050.53125 411.917969 1049.097656 C 412.546875 1048.347656 413.230469 1047.632812 413.953125 1046.882812 C 415.203125 1045.585938 416.492188 1044.242188 417.53125 1042.632812 C 419.574219 1039.464844 420.261719 1035.398438 419.410156 1031.472656 C 418.609375 1027.761719 416.554688 1024.683594 413.628906 1022.804688 C 411.453125 1021.40625 409.03125 1020.734375 406.699219 1020.085938 C 405.140625 1019.652344 403.648438 1019.234375 402.296875 1018.628906 C 407.402344 1015.742188 418.085938 1012.71875 422.375 1014.328125 C 425.074219 1015.339844 428.578125 1019.574219 431.675781 1023.308594 C 433.574219 1025.605469 435.320312 1027.714844 436.964844 1029.246094 C 439.585938 1033.210938 440.164062 1035.359375 439.417969 1038.328125 C 439.167969 1039.320312 439.769531 1040.324219 440.761719 1040.574219 C 440.910156 1040.613281 441.0625 1040.628906 441.210938 1040.628906 C 442.042969 1040.628906 442.796875 1040.070312 443.003906 1039.230469 C 443.691406 1036.5 443.503906 1034.257812 442.648438 1031.996094 C 455.410156 1034.28125 512.421875 1041.285156 519.21875 1041.285156 C 525.023438 1041.285156 532.589844 1039.75 544.039062 1037.417969 C 546.195312 1036.980469 548.480469 1036.519531 550.898438 1036.03125 C 564.765625 1033.257812 569.050781 1033.328125 569.3125 1033.328125 C 583.433594 1034.445312 587.382812 1054.34375 588.207031 1070.847656 C 588.957031 1085.816406 596.179688 1109.796875 596.488281 1110.8125 L 596.601562 1111.1875 L 596.855469 1111.480469 C 596.988281 1111.636719 610.355469 1127.230469 616.261719 1133.875 C 621.054688 1139.265625 632.847656 1164.980469 636.601562 1173.300781 Z M 547.210938 1123.46875 C 546.679688 1127.699219 546.953125 1137.144531 547.214844 1146.28125 C 547.417969 1153.304688 547.667969 1162.039062 547.265625 1163.457031 C 546.667969 1165.542969 542.550781 1170.5625 539.761719 1173.625 L 516.832031 1174.226562 C 519.894531 1168.605469 530.167969 1167.808594 530.28125 1167.800781 L 531.523438 1167.710938 L 531.910156 1166.535156 C 533.980469 1160.265625 531.085938 1145.765625 528.757812 1134.113281 C 527.613281 1128.386719 526.535156 1122.976562 526.535156 1120.714844 C 526.535156 1114.832031 531.460938 1093.441406 532.65625 1088.332031 C 537.179688 1087.277344 540.878906 1086.476562 543.023438 1086.148438 C 544.957031 1088.589844 550.777344 1095.855469 557.464844 1103.457031 C 554.90625 1106.871094 548.078125 1116.535156 547.210938 1123.46875 Z M 477.109375 1136.441406 C 476.925781 1138.285156 473.398438 1146.78125 468.074219 1156.429688 C 461.40625 1168.507812 456.964844 1173.253906 455.1875 1173.648438 C 450.097656 1174.78125 437.371094 1174.15625 431.695312 1173.800781 C 434.988281 1170.234375 444.34375 1167.390625 450.441406 1166.28125 L 451.6875 1166.054688 L 460.046875 1122.730469 L 445.730469 1104.234375 C 453.699219 1103.652344 467.621094 1102.554688 477.230469 1101.320312 C 477.589844 1109.320312 477.550781 1132.042969 477.109375 1136.441406 Z M 392.902344 1060.011719 C 391.441406 1059.648438 387.488281 1056.996094 385.464844 1053.441406 C 384.273438 1051.347656 383.960938 1049.324219 384.53125 1047.425781 C 386.609375 1040.507812 395.90625 1031.144531 395.996094 1031.050781 L 396.453125 1030.59375 L 396.53125 1029.953125 C 396.535156 1029.894531 397.15625 1024.617188 399.308594 1021.246094 C 401.34375 1022.429688 403.558594 1023.050781 405.707031 1023.648438 C 407.875 1024.25 409.921875 1024.820312 411.632812 1025.917969 C 413.71875 1027.261719 415.199219 1029.511719 415.796875 1032.257812 C 416.441406 1035.230469 415.941406 1038.277344 414.421875 1040.628906 C 413.578125 1041.9375 412.464844 1043.09375 411.289062 1044.320312 C 410.554688 1045.085938 409.789062 1045.875 409.078125 1046.726562 C 407.429688 1048.699219 406.554688 1051.355469 405.707031 1053.921875 C 404.894531 1056.375 404.121094 1058.695312 402.832031 1060.019531 C 399.699219 1060.273438 394.722656 1060.46875 392.902344 1060.011719 Z M 641.148438 1174.398438 C 640.496094 1172.929688 625.113281 1138.265625 619.027344 1131.417969 C 613.59375 1125.304688 601.800781 1111.566406 599.917969 1109.371094 C 598.992188 1106.253906 592.582031 1084.199219 591.902344 1070.664062 C 591.070312 1053.996094 587.550781 1042.183594 581.578125 1035.625 C 585.234375 1034.210938 588.382812 1031.597656 590.625 1028.058594 C 593.628906 1023.308594 594.605469 1017.519531 593.308594 1012.164062 C 590.679688 1001.328125 581.574219 993.921875 574.398438 989.617188 C 570.46875 987.253906 566.316406 985.253906 562.300781 983.320312 C 558 981.25 553.546875 979.105469 549.5 976.566406 C 544.410156 973.371094 535.605469 966.546875 533.835938 956.738281 C 532.246094 947.925781 536.878906 937.785156 545.632812 930.894531 C 554.308594 924.0625 565.527344 921.371094 574.910156 923.871094 C 585.046875 926.566406 592.925781 935.828125 593.238281 945.40625 C 593.402344 950.382812 591.230469 955.628906 587.429688 959.453125 C 583.980469 962.929688 579.714844 964.78125 575.402344 964.664062 C 573.996094 964.640625 572.78125 965.757812 572.746094 967.183594 C 572.707031 968.617188 573.835938 969.804688 575.269531 969.84375 C 581.011719 969.988281 586.636719 967.597656 591.105469 963.105469 C 595.890625 958.289062 598.625 951.609375 598.414062 945.238281 C 598.023438 933.273438 588.703125 922.179688 576.242188 918.863281 C 565.148438 915.914062 552.511719 918.886719 542.433594 926.824219 C 532.191406 934.882812 526.816406 946.988281 528.738281 957.65625 C 530.3125 966.378906 536.710938 974.652344 546.746094 980.953125 C 551.042969 983.648438 555.625 985.851562 560.054688 987.988281 C 563.964844 989.871094 568.003906 991.816406 571.734375 994.054688 C 578.0625 997.855469 586.070312 1004.289062 588.273438 1013.386719 C 589.246094 1017.382812 588.503906 1021.71875 586.246094 1025.285156 C 584.214844 1028.496094 581.199219 1030.660156 577.753906 1031.375 C 577.398438 1031.445312 577.078125 1031.589844 576.796875 1031.785156 C 574.609375 1030.566406 572.199219 1029.839844 569.570312 1029.640625 L 569.542969 1029.640625 C 569.367188 1029.628906 565.148438 1029.40625 550.171875 1032.40625 C 547.746094 1032.890625 545.460938 1033.355469 543.300781 1033.792969 C 532.476562 1035.996094 524.652344 1037.585938 519.21875 1037.585938 C 512.359375 1037.585938 445.542969 1029.335938 441.507812 1027.988281 C 441.015625 1027.824219 440.402344 1027.382812 439.71875 1026.761719 C 439.6875 1026.730469 439.65625 1026.703125 439.625 1026.675781 C 438.097656 1025.273438 436.234375 1023.019531 434.523438 1020.953125 C 430.972656 1016.660156 427.296875 1012.21875 423.675781 1010.863281 C 416.78125 1008.277344 400.316406 1013.972656 396.976562 1018.152344 C 394.234375 1021.574219 393.21875 1027.011719 392.941406 1028.886719 C 390.953125 1030.941406 383.074219 1039.402344 380.988281 1046.363281 C 380.128906 1049.226562 380.5625 1052.308594 382.25 1055.269531 C 384.800781 1059.753906 389.554688 1062.988281 392.003906 1063.601562 C 394.699219 1064.273438 400.628906 1063.902344 402.941406 1063.722656 C 404.496094 1065.164062 408.617188 1068.328125 414.800781 1068.375 C 413.414062 1071.738281 411.484375 1077.597656 411.484375 1084.175781 C 411.484375 1092.753906 410.285156 1109.230469 410.042969 1112.53125 C 405.984375 1117.445312 383.65625 1144.839844 382.53125 1153.722656 L 382.496094 1154 L 382.542969 1154.269531 C 383.285156 1158.609375 386.21875 1172.6875 392.714844 1171.761719 C 397.195312 1171.121094 396.910156 1166.046875 396.679688 1161.96875 C 396.53125 1159.300781 396.34375 1155.976562 397.488281 1154.832031 C 398.613281 1153.710938 402.597656 1150.800781 407.207031 1147.433594 C 420.285156 1137.882812 431.351562 1129.578125 434.308594 1124.652344 C 438.074219 1118.367188 440.269531 1108.308594 440.992188 1104.570312 C 441.085938 1104.566406 441.195312 1104.554688 441.296875 1104.546875 L 456.097656 1123.671875 L 448.53125 1162.886719 C 443.710938 1163.882812 428.4375 1167.609375 426.929688 1175.089844 L 426.515625 1177.136719 L 428.597656 1177.300781 C 429.136719 1177.34375 437.632812 1177.992188 445.449219 1177.992188 C 449.578125 1177.992188 453.519531 1177.8125 455.988281 1177.261719 C 464.261719 1175.421875 480.269531 1142.011719 480.792969 1136.808594 C 481.261719 1132.121094 481.300781 1108.8125 480.90625 1100.804688 C 482.300781 1100.585938 483.542969 1100.371094 484.558594 1100.152344 C 488.460938 1099.320312 496.488281 1097.296875 505.789062 1094.953125 C 513.226562 1093.078125 521.566406 1090.980469 528.636719 1089.285156 C 526.964844 1096.515625 522.835938 1114.933594 522.835938 1120.714844 C 522.835938 1123.34375 523.847656 1128.417969 525.132812 1134.839844 C 527.121094 1144.800781 529.796875 1158.207031 528.679688 1164.253906 C 524.785156 1164.777344 513.847656 1167.03125 512.421875 1175.847656 L 512.0625 1178.050781 L 541.417969 1177.285156 L 541.945312 1176.714844 C 542.742188 1175.863281 549.738281 1168.269531 550.824219 1164.472656 C 551.355469 1162.597656 551.214844 1156.605469 550.914062 1146.175781 C 550.667969 1137.597656 550.386719 1127.875 550.878906 1123.929688 C 551.585938 1118.277344 557.324219 1109.898438 559.980469 1106.285156 C 565.636719 1112.574219 571.628906 1118.714844 576.269531 1122.195312 C 587.28125 1130.453125 612.257812 1153.507812 618.636719 1162.144531 C 613.46875 1163.3125 602.945312 1166.742188 603.625 1175.296875 L 603.757812 1177 L 642.300781 1177 L 641.148438 1174.398438 " fill-opacity="1" fill-rule="nonzero"/></g><g fill="#000000" fill-opacity="1"><g transform="translate(220.177294, 979.542719)"><g><path d="M 8.335938 -59.867188 L 8.335938 0 L 30.582031 0 C 41.898438 0 51.761719 -4.894531 51.761719 -16.4375 C 51.761719 -21.027344 48.855469 -28.824219 39.988281 -31.117188 C 48.398438 -34.867188 49.085938 -42.128906 49.085938 -44.804688 C 49.085938 -54.59375 40.753906 -59.867188 29.820312 -59.867188 Z M 14.527344 -33.257812 L 14.527344 -54.132812 L 29.285156 -54.132812 C 36.164062 -54.132812 42.742188 -51.378906 42.742188 -44.117188 C 42.742188 -38.230469 38.6875 -33.257812 28.824219 -33.257812 Z M 14.527344 -5.734375 L 14.527344 -27.679688 L 29.589844 -27.679688 C 36.546875 -27.679688 45.339844 -25.382812 45.339844 -16.898438 C 45.339844 -8.335938 37.234375 -5.734375 30.738281 -5.734375 Z M 14.527344 -5.734375 "/></g></g></g><g fill="#000000" fill-opacity="1"><g transform="translate(276.221169, 979.542719)"><g><path d="M 64.300781 -30.125 C 64.300781 -47.175781 51.457031 -60.480469 34.332031 -60.480469 C 16.972656 -60.480469 4.128906 -46.945312 4.128906 -29.742188 C 4.128906 -12.691406 16.972656 0.613281 34.101562 0.613281 C 51.457031 0.613281 64.300781 -12.921875 64.300781 -30.125 Z M 57.804688 -29.742188 C 57.804688 -16.363281 48.09375 -5.277344 34.332031 -5.277344 C 20.414062 -5.277344 10.628906 -16.589844 10.628906 -30.125 C 10.628906 -43.503906 20.339844 -54.59375 34.101562 -54.59375 C 48.015625 -54.59375 57.804688 -43.199219 57.804688 -29.742188 Z M 57.804688 -29.742188 "/></g></g></g><g fill="#000000" fill-opacity="1"><g transform="translate(344.651272, 979.542719)"><g><path d="M 64.300781 -30.125 C 64.300781 -47.175781 51.457031 -60.480469 34.332031 -60.480469 C 16.972656 -60.480469 4.128906 -46.945312 4.128906 -29.742188 C 4.128906 -12.691406 16.972656 0.613281 34.101562 0.613281 C 51.457031 0.613281 64.300781 -12.921875 64.300781 -30.125 Z M 57.804688 -29.742188 C 57.804688 -16.363281 48.09375 -5.277344 34.332031 -5.277344 C 20.414062 -5.277344 10.628906 -16.589844 10.628906 -30.125 C 10.628906 -43.503906 20.339844 -54.59375 34.101562 -54.59375 C 48.015625 -54.59375 57.804688 -43.199219 57.804688 -29.742188 Z M 57.804688 -29.742188 "/></g></g></g><g fill="#000000" fill-opacity="1"><g transform="translate(413.081375, 979.542719)"><g><path d="M 14.605469 -59.867188 L 8.335938 -59.867188 L 8.335938 0 L 14.605469 0 L 14.605469 -28.824219 L 15.0625 -28.824219 L 43.121094 0 L 51.992188 0 L 21.253906 -31.195312 L 50.617188 -59.867188 L 41.824219 -59.867188 L 14.984375 -33.414062 L 14.605469 -33.414062 Z M 14.605469 -59.867188 "/></g></g></g><g fill="#000000" fill-opacity="1"><g transform="translate(464.843601, 979.542719)"><g><path d="M 57.113281 0 L 57.113281 -59.867188 L 50.921875 -59.867188 L 50.921875 -9.863281 L 15.597656 -59.867188 L 8.335938 -59.867188 L 8.335938 0 L 14.527344 0 L 14.527344 -51 L 50.386719 0 Z M 57.113281 0 "/></g></g></g><g fill="#000000" fill-opacity="1"><g transform="translate(530.286453, 979.542719)"><g/></g></g><g fill="#000000" fill-opacity="1"><g transform="translate(551.618293, 979.542719)"><g/></g></g><g fill="#000000" fill-opacity="1"><g transform="translate(572.950132, 979.542719)"><g/></g></g><g fill="#000000" fill-opacity="1"><g transform="translate(594.278905, 979.542719)"><g><path d="M 21.636719 -53.980469 L 21.636719 0 L 27.984375 0 L 27.984375 -53.980469 L 47.941406 -53.980469 L 47.941406 -59.867188 L 1.605469 -59.867188 L 1.605469 -53.980469 Z M 21.636719 -53.980469 "/></g></g></g><g fill="#000000" fill-opacity="1"><g transform="translate(643.823832, 979.542719)"><g><path d="M 45.800781 -54.054688 L 45.800781 -59.867188 L 8.335938 -59.867188 L 8.335938 0 L 46.105469 0 L 46.105469 -5.8125 L 14.605469 -5.8125 L 14.605469 -27.523438 L 43.121094 -27.523438 L 43.121094 -33.335938 L 14.605469 -33.335938 L 14.605469 -54.054688 Z M 45.800781 -54.054688 "/></g></g></g><g fill="#000000" fill-opacity="1"><g transform="translate(694.592091, 979.542719)"><g><path d="M 24.46875 0.613281 C 36.472656 0.613281 43.734375 -7.339844 43.734375 -16.132812 C 43.734375 -20.109375 42.128906 -23.472656 39.605469 -26.226562 C 36.316406 -29.820312 30.964844 -32.1875 24.542969 -33.796875 C 15.519531 -36.089844 11.773438 -39.070312 11.773438 -44.5 C 11.773438 -50.769531 17.738281 -54.667969 24.160156 -54.667969 C 32.113281 -54.667969 35.859375 -50.082031 37.847656 -45.109375 L 43.199219 -48.09375 C 40.523438 -55.203125 34.253906 -60.554688 24.3125 -60.554688 C 14.375 -60.554688 5.503906 -54.4375 5.503906 -44.195312 C 5.503906 -35.859375 11.085938 -30.582031 23.398438 -27.601562 C 32.265625 -25.460938 37.3125 -21.945312 37.3125 -15.675781 C 37.3125 -9.40625 31.5 -5.277344 24.46875 -5.277344 C 16.285156 -5.277344 12.003906 -9.863281 9.175781 -16.820312 L 3.746094 -13.992188 C 7.1875 -4.894531 13.992188 0.613281 24.46875 0.613281 Z M 24.46875 0.613281 "/></g></g></g></svg>