<svg xmlns="http://www.w3.org/2000/svg" xmlns:xlink="http://www.w3.org/1999/xlink" width="120" zoomAndPan="magnify" viewBox="0 0 375 374.999991" height="130" preserveAspectRatio="xMidYMid meet" version="1.0"><defs><g/><clipPath id="73914f8f8f"><path d="M 115 98 L 302.933594 98 L 302.933594 285.527344 L 115 285.527344 Z M 115 98 " clip-rule="nonzero"/></clipPath></defs><g clip-path="url(#73914f8f8f)"><path fill="#8e24aa" d="M 277.9375 282.089844 C 279.078125 277.707031 288.179688 276.359375 288.28125 276.347656 L 290.039062 276.113281 L 289.320312 274.492188 C 287.019531 269.316406 265.550781 249.589844 257.148438 243.289062 C 249.539062 237.578125 236.058594 220.765625 233.683594 217.773438 C 230.78125 213.019531 228.449219 208.984375 226.351562 205.085938 C 226 204.441406 225.195312 204.199219 224.550781 204.546875 C 223.90625 204.898438 223.664062 205.703125 224.011719 206.347656 C 225.824219 209.714844 227.8125 213.183594 230.179688 217.113281 C 225.113281 218.050781 214.15625 220.808594 204.328125 223.285156 C 197.679688 224.960938 191.933594 226.40625 189.183594 227 C 182.929688 228.335938 164.214844 229.703125 158.769531 230.078125 L 160.296875 216.40625 C 160.378906 215.675781 159.851562 215.019531 159.125 214.9375 C 158.394531 214.855469 157.738281 215.382812 157.65625 216.109375 L 155.957031 231.351562 C 155.941406 231.472656 155.949219 231.585938 155.96875 231.703125 C 155.625 233.566406 154.078125 241.339844 151.398438 245.808594 C 149.378906 249.171875 139.320312 256.515625 132.660156 261.382812 C 128.984375 264.066406 126.324219 266.007812 125.375 266.957031 C 123.710938 268.621094 123.871094 271.40625 124.019531 274.105469 C 124.125 275.949219 124.25 278.242188 123.449219 278.355469 C 122.203125 278.542969 120.144531 273.625 119.175781 268.191406 C 120.101562 263.007812 133.445312 246.027344 138.570312 239.847656 L 138.839844 239.523438 L 138.875 239.101562 C 138.917969 238.53125 139.949219 225.054688 139.949219 218.128906 C 139.949219 211.613281 142.96875 205.976562 143 205.921875 L 144.304688 203.527344 L 141.613281 203.976562 C 137.648438 204.636719 134.871094 203.03125 133.542969 201.992188 C 134.539062 200.65625 135.113281 198.929688 135.667969 197.246094 C 136.199219 195.640625 136.746094 193.980469 137.605469 192.953125 C 138.058594 192.414062 138.550781 191.902344 139.066406 191.363281 C 139.964844 190.429688 140.890625 189.46875 141.636719 188.3125 C 143.101562 186.039062 143.59375 183.121094 142.984375 180.304688 C 142.40625 177.640625 140.933594 175.429688 138.832031 174.082031 C 137.273438 173.082031 135.535156 172.597656 133.859375 172.128906 C 132.742188 171.820312 131.671875 171.519531 130.699219 171.085938 C 134.367188 169.015625 142.03125 166.84375 145.113281 168 C 147.050781 168.726562 149.5625 171.761719 151.785156 174.445312 C 153.148438 176.09375 154.402344 177.605469 155.582031 178.707031 C 157.464844 181.550781 157.875 183.09375 157.339844 185.226562 C 157.164062 185.9375 157.59375 186.65625 158.304688 186.835938 C 158.414062 186.863281 158.523438 186.875 158.628906 186.875 C 159.226562 186.875 159.765625 186.472656 159.914062 185.871094 C 160.410156 183.910156 160.273438 182.300781 159.660156 180.679688 C 168.816406 182.320312 209.734375 187.347656 214.613281 187.347656 C 218.78125 187.347656 224.207031 186.242188 232.425781 184.570312 C 233.972656 184.257812 235.613281 183.925781 237.347656 183.574219 C 247.300781 181.585938 250.375 181.632812 250.5625 181.636719 C 260.699219 182.4375 263.53125 196.71875 264.125 208.5625 C 264.664062 219.304688 269.847656 236.515625 270.066406 237.242188 L 270.148438 237.511719 L 270.328125 237.722656 C 270.425781 237.835938 280.019531 249.023438 284.257812 253.796875 C 287.695312 257.664062 296.160156 276.117188 298.855469 282.089844 Z M 234.699219 246.328125 C 234.320312 249.359375 234.515625 256.140625 234.707031 262.699219 C 234.851562 267.738281 235.03125 274.007812 234.742188 275.023438 C 234.3125 276.523438 231.355469 280.125 229.355469 282.324219 L 212.898438 282.753906 C 215.097656 278.71875 222.46875 278.148438 222.550781 278.140625 L 223.441406 278.078125 L 223.71875 277.230469 C 225.207031 272.734375 223.128906 262.328125 221.460938 253.964844 C 220.636719 249.855469 219.863281 245.972656 219.863281 244.351562 C 219.863281 240.128906 223.398438 224.777344 224.257812 221.109375 C 227.5 220.351562 230.15625 219.777344 231.695312 219.542969 C 233.085938 221.296875 237.261719 226.507812 242.058594 231.964844 C 240.222656 234.414062 235.324219 241.351562 234.699219 246.328125 Z M 184.394531 255.636719 C 184.261719 256.960938 181.730469 263.058594 177.90625 269.980469 C 173.121094 278.648438 169.933594 282.054688 168.660156 282.339844 C 165.003906 283.152344 155.871094 282.703125 151.800781 282.449219 C 154.160156 279.890625 160.878906 277.847656 165.253906 277.050781 L 166.148438 276.890625 L 172.148438 245.796875 L 161.871094 232.523438 C 167.59375 232.105469 177.582031 231.316406 184.476562 230.429688 C 184.734375 236.171875 184.707031 252.480469 184.394531 255.636719 Z M 123.960938 200.785156 C 122.910156 200.523438 120.074219 198.621094 118.621094 196.070312 C 117.769531 194.566406 117.542969 193.113281 117.953125 191.753906 C 119.441406 186.785156 126.113281 180.070312 126.179688 180.003906 L 126.507812 179.671875 L 126.5625 179.210938 C 126.566406 179.171875 127.011719 175.386719 128.554688 172.964844 C 130.019531 173.8125 131.605469 174.261719 133.148438 174.6875 C 134.703125 175.121094 136.175781 175.53125 137.398438 176.316406 C 138.898438 177.28125 139.960938 178.898438 140.390625 180.867188 C 140.851562 183 140.492188 185.1875 139.402344 186.875 C 138.796875 187.8125 138 188.644531 137.15625 189.523438 C 136.625 190.074219 136.078125 190.636719 135.570312 191.25 C 134.382812 192.667969 133.753906 194.574219 133.148438 196.414062 C 132.566406 198.175781 132.007812 199.839844 131.085938 200.792969 C 128.839844 200.972656 125.265625 201.113281 123.960938 200.785156 Z M 302.117188 282.878906 C 301.648438 281.824219 290.609375 256.945312 286.242188 252.03125 C 282.34375 247.644531 273.878906 237.785156 272.527344 236.207031 C 271.863281 233.972656 267.261719 218.144531 266.777344 208.429688 C 266.179688 196.46875 263.652344 187.988281 259.367188 183.285156 C 261.988281 182.269531 264.25 180.390625 265.859375 177.851562 C 268.015625 174.445312 268.714844 170.289062 267.785156 166.445312 C 265.898438 158.671875 259.363281 153.355469 254.214844 150.265625 C 251.390625 148.570312 248.414062 147.132812 245.53125 145.746094 C 242.445312 144.257812 239.25 142.722656 236.347656 140.898438 C 232.691406 138.605469 226.371094 133.707031 225.105469 126.667969 C 223.960938 120.347656 227.289062 113.066406 233.570312 108.121094 C 239.796875 103.21875 247.847656 101.289062 254.582031 103.082031 C 261.855469 105.015625 267.511719 111.660156 267.734375 118.539062 C 267.851562 122.105469 266.292969 125.875 263.566406 128.617188 C 261.089844 131.109375 258.03125 132.441406 254.933594 132.359375 C 253.925781 132.339844 253.054688 133.140625 253.027344 134.167969 C 253 135.191406 253.8125 136.046875 254.835938 136.074219 C 258.957031 136.179688 262.996094 134.464844 266.203125 131.238281 C 269.636719 127.78125 271.597656 122.988281 271.449219 118.417969 C 271.167969 109.828125 264.476562 101.867188 255.535156 99.488281 C 247.574219 97.371094 238.503906 99.503906 231.273438 105.199219 C 223.921875 110.984375 220.066406 119.671875 221.445312 127.328125 C 222.574219 133.585938 227.164062 139.527344 234.367188 144.046875 C 237.453125 145.980469 240.738281 147.5625 243.917969 149.097656 C 246.726562 150.445312 249.625 151.84375 252.300781 153.449219 C 256.84375 156.179688 262.589844 160.796875 264.171875 167.324219 C 264.867188 170.191406 264.335938 173.304688 262.71875 175.863281 C 261.257812 178.167969 259.09375 179.71875 256.621094 180.230469 C 256.367188 180.285156 256.136719 180.386719 255.933594 180.527344 C 254.363281 179.652344 252.632812 179.132812 250.746094 178.988281 L 250.726562 178.988281 C 250.605469 178.980469 247.574219 178.820312 236.828125 180.972656 C 235.085938 181.320312 233.445312 181.65625 231.898438 181.96875 C 224.125 183.550781 218.511719 184.691406 214.613281 184.691406 C 209.691406 184.691406 161.738281 178.769531 158.839844 177.804688 C 158.488281 177.683594 158.050781 177.367188 157.558594 176.925781 C 157.535156 176.902344 157.515625 176.878906 157.492188 176.863281 C 156.394531 175.855469 155.058594 174.238281 153.828125 172.753906 C 151.28125 169.671875 148.644531 166.488281 146.042969 165.511719 C 141.097656 163.65625 129.28125 167.742188 126.882812 170.742188 C 124.914062 173.199219 124.1875 177.101562 123.988281 178.449219 C 122.5625 179.921875 116.90625 185.996094 115.410156 190.988281 C 114.792969 193.042969 115.105469 195.253906 116.3125 197.382812 C 118.144531 200.597656 121.558594 202.921875 123.3125 203.363281 C 125.25 203.84375 129.503906 203.578125 131.164062 203.449219 C 132.28125 204.484375 135.238281 206.753906 139.675781 206.785156 C 138.679688 209.199219 137.292969 213.40625 137.292969 218.128906 C 137.292969 224.28125 136.4375 236.105469 136.257812 238.476562 C 133.347656 242.003906 117.324219 261.664062 116.515625 268.039062 L 116.488281 268.238281 L 116.523438 268.429688 C 117.058594 271.542969 119.160156 281.648438 123.824219 280.984375 C 127.039062 280.527344 126.835938 276.882812 126.671875 273.957031 C 126.566406 272.039062 126.429688 269.65625 127.25 268.835938 C 128.058594 268.027344 130.917969 265.941406 134.226562 263.523438 C 143.609375 256.671875 151.550781 250.710938 153.675781 247.175781 C 156.378906 242.664062 157.953125 235.449219 158.472656 232.761719 C 158.539062 232.757812 158.617188 232.753906 158.691406 232.746094 L 169.3125 246.472656 L 163.882812 274.613281 C 160.421875 275.332031 149.460938 278.003906 148.378906 283.375 L 148.082031 284.84375 L 149.578125 284.957031 C 149.964844 284.988281 156.0625 285.457031 161.671875 285.457031 C 164.632812 285.457031 167.460938 285.324219 169.234375 284.933594 C 175.171875 283.609375 186.660156 259.636719 187.035156 255.898438 C 187.371094 252.535156 187.398438 235.808594 187.117188 230.0625 C 188.117188 229.90625 189.007812 229.75 189.738281 229.59375 C 192.539062 228.996094 198.300781 227.542969 204.976562 225.859375 C 210.3125 224.515625 216.296875 223.011719 221.371094 221.792969 C 220.171875 226.984375 217.210938 240.203125 217.210938 244.351562 C 217.210938 246.234375 217.933594 249.878906 218.855469 254.488281 C 220.28125 261.632812 222.203125 271.257812 221.402344 275.597656 C 218.605469 275.972656 210.757812 277.589844 209.734375 283.917969 L 209.476562 285.496094 L 230.542969 284.949219 L 230.925781 284.539062 C 231.496094 283.929688 236.515625 278.480469 237.292969 275.753906 C 237.675781 274.40625 237.574219 270.109375 237.359375 262.625 C 237.183594 256.464844 236.980469 249.488281 237.335938 246.65625 C 237.839844 242.597656 241.960938 236.589844 243.863281 233.992188 C 247.925781 238.507812 252.226562 242.914062 255.558594 245.410156 C 263.457031 251.339844 281.382812 267.882812 285.960938 274.082031 C 282.253906 274.917969 274.703125 277.382812 275.1875 283.519531 L 275.28125 284.746094 L 302.945312 284.746094 L 302.117188 282.878906 " fill-opacity="1" fill-rule="nonzero"/></g><g fill="#000000" fill-opacity="1"><g transform="translate(0.0000045, 143.035193)"><g><path d="M 5.980469 -42.964844 L 5.980469 0 L 21.949219 0 C 30.070312 0 37.148438 -3.511719 37.148438 -11.796875 C 37.148438 -15.089844 35.0625 -20.6875 28.699219 -22.332031 C 34.734375 -25.023438 35.226562 -30.234375 35.226562 -32.15625 C 35.226562 -39.179688 29.246094 -42.964844 21.398438 -42.964844 Z M 10.425781 -23.871094 L 10.425781 -38.847656 L 21.015625 -38.847656 C 25.953125 -38.847656 30.671875 -36.875 30.671875 -31.660156 C 30.671875 -27.4375 27.765625 -23.871094 20.6875 -23.871094 Z M 10.425781 -4.117188 L 10.425781 -19.863281 L 21.234375 -19.863281 C 26.230469 -19.863281 32.539062 -18.21875 32.539062 -12.125 C 32.539062 -5.980469 26.722656 -4.117188 22.058594 -4.117188 Z M 10.425781 -4.117188 "/></g></g></g><g fill="#000000" fill-opacity="1"><g transform="translate(40.220924, 143.035193)"><g><path d="M 46.148438 -21.621094 C 46.148438 -33.855469 36.929688 -43.402344 24.636719 -43.402344 C 12.183594 -43.402344 2.964844 -33.691406 2.964844 -21.34375 C 2.964844 -9.109375 12.183594 0.4375 24.472656 0.4375 C 36.929688 0.4375 46.148438 -9.273438 46.148438 -21.621094 Z M 41.484375 -21.34375 C 41.484375 -11.742188 34.515625 -3.785156 24.636719 -3.785156 C 14.652344 -3.785156 7.628906 -11.90625 7.628906 -21.621094 C 7.628906 -31.222656 14.597656 -39.179688 24.472656 -39.179688 C 34.460938 -39.179688 41.484375 -31.003906 41.484375 -21.34375 Z M 41.484375 -21.34375 "/></g></g></g><g fill="#000000" fill-opacity="1"><g transform="translate(89.33105, 143.035193)"><g><path d="M 46.148438 -21.621094 C 46.148438 -33.855469 36.929688 -43.402344 24.636719 -43.402344 C 12.183594 -43.402344 2.964844 -33.691406 2.964844 -21.34375 C 2.964844 -9.109375 12.183594 0.4375 24.472656 0.4375 C 36.929688 0.4375 46.148438 -9.273438 46.148438 -21.621094 Z M 41.484375 -21.34375 C 41.484375 -11.742188 34.515625 -3.785156 24.636719 -3.785156 C 14.652344 -3.785156 7.628906 -11.90625 7.628906 -21.621094 C 7.628906 -31.222656 14.597656 -39.179688 24.472656 -39.179688 C 34.460938 -39.179688 41.484375 -31.003906 41.484375 -21.34375 Z M 41.484375 -21.34375 "/></g></g></g><g fill="#000000" fill-opacity="1"><g transform="translate(138.441175, 143.035193)"><g><path d="M 10.480469 -42.964844 L 5.980469 -42.964844 L 5.980469 0 L 10.480469 0 L 10.480469 -20.6875 L 10.808594 -20.6875 L 30.949219 0 L 37.3125 0 L 15.253906 -22.386719 L 36.324219 -42.964844 L 30.015625 -42.964844 L 10.753906 -23.980469 L 10.480469 -23.980469 Z M 10.480469 -42.964844 "/></g></g></g><g fill="#000000" fill-opacity="1"><g transform="translate(175.58929, 143.035193)"><g><path d="M 40.988281 0 L 40.988281 -42.964844 L 36.546875 -42.964844 L 36.546875 -7.078125 L 11.195312 -42.964844 L 5.980469 -42.964844 L 5.980469 0 L 10.425781 0 L 10.425781 -36.601562 L 36.160156 0 Z M 40.988281 0 "/></g></g></g><g fill="#000000" fill-opacity="1"><g transform="translate(222.55556, 143.035193)"><g/></g></g><g fill="#000000" fill-opacity="1"><g transform="translate(237.864748, 143.035193)"><g/></g></g><g fill="#000000" fill-opacity="1"><g transform="translate(253.173936, 143.035193)"><g/></g></g><g fill="#000000" fill-opacity="1"><g transform="translate(268.480923, 143.035193)"><g><path d="M 15.527344 -38.738281 L 15.527344 0 L 20.082031 0 L 20.082031 -38.738281 L 34.40625 -38.738281 L 34.40625 -42.964844 L 1.152344 -42.964844 L 1.152344 -38.738281 Z M 15.527344 -38.738281 "/></g></g></g><g fill="#000000" fill-opacity="1"><g transform="translate(304.037753, 143.035193)"><g><path d="M 32.867188 -38.792969 L 32.867188 -42.964844 L 5.980469 -42.964844 L 5.980469 0 L 33.089844 0 L 33.089844 -4.171875 L 10.480469 -4.171875 L 10.480469 -19.753906 L 30.949219 -19.753906 L 30.949219 -23.925781 L 10.480469 -23.925781 L 10.480469 -38.792969 Z M 32.867188 -38.792969 "/></g></g></g><g fill="#000000" fill-opacity="1"><g transform="translate(340.47253, 143.035193)"><g><path d="M 17.558594 0.4375 C 26.175781 0.4375 31.386719 -5.269531 31.386719 -11.578125 C 31.386719 -14.429688 30.234375 -16.847656 28.425781 -18.820312 C 26.0625 -21.398438 22.222656 -23.101562 17.613281 -24.253906 C 11.140625 -25.898438 8.449219 -28.039062 8.449219 -31.9375 C 8.449219 -36.433594 12.730469 -39.234375 17.339844 -39.234375 C 23.046875 -39.234375 25.734375 -35.941406 27.160156 -32.375 L 31.003906 -34.515625 C 29.082031 -39.617188 24.582031 -43.457031 17.449219 -43.457031 C 10.316406 -43.457031 3.949219 -39.070312 3.949219 -31.714844 C 3.949219 -25.734375 7.957031 -21.949219 16.789062 -19.808594 C 23.15625 -18.273438 26.777344 -15.75 26.777344 -11.25 C 26.777344 -6.75 22.605469 -3.785156 17.558594 -3.785156 C 11.6875 -3.785156 8.613281 -7.078125 6.585938 -12.070312 L 2.6875 -10.042969 C 5.15625 -3.511719 10.042969 0.4375 17.558594 0.4375 Z M 17.558594 0.4375 "/></g></g></g></svg>